# xmcd
# Copyright (C) 1995-1998 Ti Kan
#
# Track frame offsets:
#       150
#       14247
#       30482
#       44294
#       59154
#       64953
#       78819
#       91339
#
# Disc length: 1395 seconds
#
# Revision: 0
# Processed by: cddbd v1.5.2PL0 Copyright (c) Steve Scherf et al.
# Submitted via: CD-Import v1.0
#
DISCID=68057108
DTITLE=Bonaparte - Too Much
DYEAR=08
DGENRE=
TTITLE0=Too Much
TTITLE1=Wrygdwylife?
TTITLE2=I Can't Dance
TTITLE3=Anti Anti
TTITLE4=Do You Want To Party?
TTITLE5=Apache
TTITLE6=Apache
TTITLE7=Apache
EXTD=
EXTT0=
EXTT1=
EXTT2=
EXTT3=
EXTT4=
EXTT5=
EXTT6=
EXTT7=
PLAYORDER=
